<svg width="477" height="510" xmlns="http://www.w3.org/2000/svg" xmlns:xlink="http://www.w3.org/1999/xlink" overflow="hidden"><defs><clipPath id="clip0"><rect x="764" y="105" width="477" height="510"/></clipPath></defs><g clip-path="url(#clip0)" transform="translate(-764 -105)"><path d="M1030.37 604.364C1013.23 589.837 1015.79 563.481 1016.34 540.999 1016.62 531.383 1013.85 518.932 1004.31 517.756 993.46 516.441 988.483 531.037 988.76 542.036 989.244 563.412 992.976 588.246 977.493 603.049 966.018 614.048 948.322 614.602 932.354 614.394 906.087 614.118 879.82 613.841 853.622 613.633 833.368 613.426 810.073 611.696 798.115 595.371 784.083 576.14 793.898 547.294 782.009 526.749 777.516 518.932 770.119 512.844 766.94 504.405 761.617 490.431 771.709 472.861 786.433 470.37 775.096 438.135 770.949 403.27 774.405 369.236 776.133 351.734 779.935 334.509 783.668 317.354 786.156 305.732 788.714 293.972 793.691 283.181 798.944 271.836 793.345 258.831 789.889 246.795 784.774 229.086 784.635 209.993 789.405 192.215 791.41 184.606 797.907 175.544 805.027 178.795 817.608 150.225 840.419 126.291 868.345 112.317 881.271 105.815 899.659 102.632 908.161 114.392 928.138 142.132 961.11 157.627 994.082 166.482 1027.05 175.405 1061.41 178.864 1094.04 188.895 1126.73 198.925 1158.88 216.911 1175.88 246.587 1180.65 254.888 1184.17 263.95 1190.33 271.214 1195.23 277.024 1201.59 281.313 1207.05 286.571 1227.93 306.839 1233.11 338.245 1233.05 367.368 1232.98 401.748 1227.24 436.129 1216.04 468.71 1230.35 476.873 1245.49 492.299 1238.92 507.449 1236.02 514.02 1229.73 518.309 1225.37 524.051 1210.51 543.697 1222.54 574.688 1208.37 594.956 1196.82 611.42 1173.53 613.288 1153.35 613.495 1127.01 613.841 1100.67 614.118 1074.27 614.463 1058.92 614.671 1042.05 614.325 1030.37 604.364M1228.55 362.733C1228.07 336.723 1223.64 308.845 1205.4 290.306 1198.07 282.835 1188.74 277.232 1182.38 268.862 1176.85 261.667 1173.88 252.882 1169.59 244.858 1154.93 217.948 1125.63 202.038 1096.11 193.737 1066.66 185.436 1035.76 183.222 1006.11 175.267 965.396 164.476 927.654 142.824 897.654 113.216 894.267 109.827 888.737 110.588 884.105 111.902 846.709 122.624 815.949 154.099 806.064 191.8 803.852 190.001 802.884 186.681 803.921 183.983 801.364 180.801 796.663 185.228 795.35 189.102 788.437 208.817 788.368 230.815 795.212 250.599 798.599 260.561 803.714 271.767 798.668 281.037 795.695 286.501 794.244 292.658 792.792 298.676 780.557 349.866 769.774 404.238 785.534 454.46 786.502 457.573 787.608 460.755 789.682 463.315 797.769 473.553 815.465 468.226 822.585 457.227 829.774 446.297 830.188 432.531 833.092 419.803 841.248 383.832 870.834 354.916 905.534 342.603 917.078 338.591 930.557 334.924 935.672 323.856 968.161 327.661 1000.93 325.517 1033.55 326.969 1066.18 328.422 1099.7 333.749 1127.56 350.835 1155.42 367.921 1176.64 398.705 1174.7 431.355 1174.22 439.449 1172.56 448.165 1176.57 455.152 1181.62 463.937 1193.16 466.012 1203.25 467.119 1205.88 467.396 1208.71 467.673 1211.06 466.427 1214.04 464.767 1215.28 461.17 1216.25 457.85 1224.89 426.997 1229.11 394.831 1228.55 362.733M901.87 348.552C865.649 362.111 838.207 396.698 833.23 435.022 832.055 444.153 832.055 453.561 829.635 462.415 944.935 457.711 1060.44 457.573 1175.81 462.139 1167.17 451.209 1170.42 435.575 1169.87 421.671 1168.55 389.988 1144.43 362.733 1115.88 348.967 1087.33 335.201 1054.84 332.572 1023.18 331.189 999.405 330.151 975.557 329.736 951.778 329.252 945.764 329.183 939.129 329.321 934.774 333.403 925.926 341.704 913.276 344.332 901.87 348.552M984.336 540.653C984.405 529.239 988.829 515.335 1000.1 513.536 1009.01 512.083 1017.24 519.9 1019.87 528.616 1022.56 537.263 1021.18 546.533 1020.42 555.595 1018.9 574.065 1022.08 595.924 1038.25 604.917 1046.48 609.483 1056.36 609.552 1065.76 609.552 1096.11 609.483 1126.52 609.483 1156.87 609.414 1166.13 609.414 1175.6 609.344 1184.31 606.37 1198.69 601.458 1209.89 588.246 1212.38 573.235 1214.87 558.362 1209.54 541.829 1216.87 528.616 1221.71 519.969 1231.39 514.228 1234.5 504.82 1238.09 493.752 1230.76 481.439 1220.67 475.49 1210.65 469.61 1198.55 468.641 1186.87 467.88 1096.04 462.208 1004.87 463.107 913.829 464.006 874.843 464.421 835.58 464.836 797.285 472.307 785.119 474.729 770.742 480.263 769.013 492.576 767.285 505.373 780.557 514.505 786.986 525.711 798.599 545.979 787.746 574.549 801.778 593.227 812.976 608.099 834.405 609.483 853 609.483 882.239 609.483 911.479 609.483 940.649 609.552 951.018 609.552 962.147 609.344 970.718 603.465 979.981 597.17 984.128 585.479 985.096 574.272 985.995 563.066 984.198 551.859 984.336 540.653" stroke="#00B0F0" stroke-linecap="round" stroke-linejoin="round" stroke-miterlimit="10" fill="none" fill-rule="evenodd"/><path d="M911.626 567.237C899.123 568.973 885.926 561.96 880.369 550.642 874.882 539.324 877.452 524.603 886.482 515.854 895.511 507.035 910.306 504.952 921.42 510.785 932.603 516.618 939.201 530.019 937.118 542.448 936.284 547.517 931.839 551.267 927.116 553.211 926.213 558.488 922.531 563.279 917.669 565.501 915.794 566.404 913.71 566.89 911.626 567.237M888.566 555.433C891.83 558.905 895.998 561.405 900.582 562.654 903.291 563.349 906.139 563.627 908.987 563.418 912.807 563.21 916.766 562.099 919.544 559.321 922.253 556.613 923.365 552.031 921.281 548.767 925.171 549.878 929.547 547.517 931.63 544.045 933.714 540.573 933.853 536.199 933.02 532.172 930.797 521.756 921.559 513.146 911.001 511.757 900.374 510.299 889.191 516.132 884.328 525.644 879.466 535.157 881.203 547.656 888.566 555.433" stroke="#FFFFFF" stroke-linecap="round" stroke-linejoin="round" stroke-miterlimit="10" fill="none" fill-rule="evenodd"/><path d="M1114.1 565.29C1102.39 570.208 1087.77 566.675 1079.53 557.116 1071.28 547.487 1070.18 532.456 1076.83 521.719 1083.48 510.913 1097.4 505.233 1109.66 508.35 1121.99 511.398 1131.62 522.966 1132.46 535.573 1132.66 539.314 1132.18 543.262 1130.1 546.31 1127.95 549.496 1124.28 551.574 1122.62 555.038 1121.79 556.631 1121.51 558.501 1120.68 560.025 1119.29 562.588 1116.73 564.181 1114.1 565.29M1111.6 561.757C1113.4 561.134 1115.14 560.164 1116.38 558.709 1118.81 555.938 1118.53 551.228 1115.76 548.734 1119.43 550.189 1123.8 548.249 1126.01 545.063 1128.23 541.807 1128.65 537.651 1128.09 533.772 1126.5 523.243 1117.84 514.099 1107.38 512.091 1096.92 510.013 1085.42 515.208 1080.01 524.421 1074.61 533.633 1075.72 546.171 1082.58 554.276 1089.5 562.45 1101.7 565.567 1111.6 561.757" stroke="#FFFFFF" stroke-linecap="round" stroke-linejoin="round" stroke-miterlimit="10" fill="none" fill-rule="evenodd"/><path d="M956.928 497.263C960.036 501.966 960.865 507.846 961.417 513.518 963.075 530.188 962.799 547.066 960.796 563.668 959.967 570.377 958.585 577.571 953.75 582.275 947.81 588.085 938.623 588.431 930.334 588.431 903.325 588.431 876.317 588.431 849.308 588.5 842.608 588.5 835.701 588.431 829.415 586.079 823.129 583.727 817.534 578.401 816.636 571.761 814.356 553.153 813.873 534.339 815.323 515.662 815.876 508.884 816.774 501.69 820.78 496.225 828.102 486.334 842.263 485.434 854.489 485.503 877.215 485.503 900.01 485.503 922.735 485.573 935.307 485.573 950.089 486.679 956.928 497.263M818.915 520.85C819.192 534.27 819.468 547.758 819.744 561.177 819.813 567.61 820.228 574.666 824.787 579.231 829.415 583.866 836.737 584.211 843.299 584.211 872.932 584.281 902.565 584.281 932.199 584.35 937.863 584.35 943.941 584.281 948.639 581.099 956.513 575.911 957.342 564.913 957.48 555.505 957.549 543.677 957.687 531.849 957.757 520.02 957.826 511.581 957.549 502.174 951.402 496.363 946.29 491.591 938.623 490.83 931.577 490.484 903.602 488.962 875.488 488.962 847.443 490.415 839.016 490.899 829.622 491.867 824.096 498.3 818.915 504.249 818.777 512.965 818.915 520.85" stroke="#00B0F0" stroke-linecap="round" stroke-linejoin="round" stroke-miterlimit="10" fill="none" fill-rule="evenodd"/><path d="M1192.36 522.556C1192.7 534.352 1192.43 546.147 1191.46 557.943 1190.55 568.703 1187.99 581.119 1178.28 586.017 1173.57 588.362 1168.09 588.431 1162.82 588.431 1133.56 588.431 1104.3 588.5 1075.04 588.5 1067.14 588.5 1058.4 588.155 1052.72 582.637 1048.77 578.774 1047.17 573.118 1046.06 567.669 1043.08 553.321 1041.97 538.628 1042.73 523.936 1043.5 510.416 1047.31 494.965 1059.51 489.102 1064.85 486.549 1070.88 486.273 1076.78 486.067 1103.82 485.239 1130.93 485.308 1157.97 486.342 1166.29 486.618 1175.16 487.239 1181.68 492.344 1190.42 499.173 1192.01 511.52 1192.36 522.556M1053.13 499.31C1049.39 503.863 1048.56 510.071 1048.07 515.934 1046.75 532.42 1047.31 549.044 1049.74 565.461 1050.5 570.497 1051.61 575.877 1055.35 579.464 1059.93 583.879 1067 584.154 1073.45 584.224 1102.08 584.224 1130.72 584.292 1159.35 584.361 1167.12 584.361 1175.79 584.085 1181.26 578.636 1186.26 573.67 1187.02 566.013 1187.37 558.977 1188.13 544.147 1188.06 529.247 1187.23 514.417 1186.95 509.243 1186.46 503.725 1183.41 499.517 1178.7 493.033 1169.62 491.723 1161.57 491.171 1133.08 489.102 1104.44 489.102 1075.94 491.102 1067.62 491.654 1058.4 492.895 1053.13 499.31" stroke="#00B0F0" stroke-linecap="round" stroke-linejoin="round" stroke-miterlimit="10" fill="none" fill-rule="evenodd"/></g></svg>