<svg width="553" height="110" xmlns="http://www.w3.org/2000/svg" xmlns:xlink="http://www.w3.org/1999/xlink" overflow="hidden"><defs><clipPath id="clip0"><rect x="359" y="505" width="553" height="110"/></clipPath><clipPath id="clip1"><rect x="359" y="506" width="552" height="108"/></clipPath><clipPath id="clip2"><rect x="359" y="506" width="552" height="108"/></clipPath></defs><g clip-path="url(#clip0)" transform="translate(-359 -505)"><g clip-path="url(#clip1)"><g clip-path="url(#clip2)"><path d="M418.188 583.848 415.56 605.878 432.797 605.878 435.502 583.848ZM415.328 545.199C416.926 545.199 418.214 545.263 419.193 545.392 420.171 545.521 420.919 545.715 421.435 545.972 421.95 546.23 422.272 546.526 422.4 546.861 422.529 547.196 422.594 547.57 422.594 547.982L419.734 570.63 437.048 570.63 439.676 548.059C439.728 547.646 439.883 547.26 440.141 546.899 440.398 546.539 440.824 546.23 441.415 545.972 442.008 545.715 442.821 545.521 443.851 545.392 444.882 545.263 446.222 545.199 447.87 545.199 449.467 545.199 450.755 545.263 451.735 545.392 452.714 545.521 453.461 545.715 453.976 545.972 454.492 546.23 454.815 546.526 454.943 546.861 455.072 547.196 455.111 547.57 455.059 547.982L452.353 570.63 459.774 570.63C460.65 570.63 461.359 571.133 461.9 572.137 462.441 573.142 462.711 574.829 462.711 577.2 462.711 578.437 462.634 579.48 462.479 580.331 462.325 581.181 462.118 581.864 461.861 582.38 461.603 582.895 461.281 583.268 460.894 583.5 460.508 583.732 460.109 583.848 459.697 583.848L450.885 583.848 448.257 605.878 455.832 605.878C456.708 605.878 457.417 606.38 457.958 607.386 458.499 608.391 458.769 610.078 458.769 612.449 458.769 613.685 458.692 614.741 458.537 615.618 458.383 616.493 458.176 617.189 457.919 617.705 457.661 618.22 457.339 618.593 456.952 618.825 456.566 619.057 456.167 619.173 455.754 619.173L446.556 619.173 443.696 643.368C443.644 643.831 443.502 644.231 443.271 644.566 443.039 644.9 442.627 645.197 442.034 645.455 441.441 645.713 440.643 645.893 439.638 645.996 438.633 646.098 437.357 646.15 435.812 646.15 434.162 646.15 432.836 646.098 431.831 645.996 430.825 645.893 430.066 645.713 429.551 645.455 429.035 645.197 428.688 644.9 428.507 644.566 428.327 644.231 428.263 643.831 428.313 643.368L431.251 619.173 413.936 619.173 411.076 643.368C411.025 643.78 410.883 644.167 410.651 644.527 410.419 644.888 410.02 645.197 409.453 645.455 408.886 645.713 408.101 645.893 407.095 645.996 406.09 646.098 404.764 646.15 403.115 646.15 401.517 646.15 400.229 646.098 399.25 645.996 398.27 645.893 397.511 645.713 396.97 645.455 396.428 645.197 396.067 644.9 395.887 644.566 395.707 644.231 395.668 643.831 395.771 643.368L398.554 619.173 391.211 619.173C390.334 619.173 389.626 618.684 389.085 617.705 388.544 616.726 388.273 615.025 388.273 612.603 388.273 611.366 388.351 610.31 388.505 609.433 388.66 608.558 388.866 607.862 389.124 607.346 389.381 606.831 389.691 606.458 390.052 606.226 390.412 605.994 390.825 605.878 391.288 605.878L400.255 605.878 402.883 583.848 395.075 583.848C394.2 583.848 393.491 583.358 392.95 582.38 392.409 581.4 392.139 579.7 392.139 577.278 392.139 574.804 392.422 573.078 392.988 572.099 393.555 571.119 394.276 570.63 395.153 570.63L404.429 570.63 407.211 548.059C407.211 547.596 407.34 547.196 407.598 546.861 407.855 546.526 408.293 546.23 408.912 545.972 409.531 545.715 410.355 545.521 411.386 545.392 412.416 545.263 413.73 545.199 415.328 545.199Z" stroke="#FFFFFF" stroke-width="2.06937" stroke-linejoin="round" stroke-miterlimit="10" fill="none" fill-rule="evenodd" transform="matrix(1.00742 0 0 1 -27.3059 -35.9001)"/><path d="M873.61 555.018 923.781 555.018C924.523 555.037 925.129 555.286 925.597 555.767 926.067 556.247 926.309 556.845 926.324 557.559L926.324 569.538C926.309 570.253 926.067 570.85 925.597 571.331 925.129 571.811 924.523 572.061 923.781 572.079L888.857 572.079 888.857 580.133C888.841 580.848 888.599 581.446 888.13 581.927 887.662 582.408 887.057 582.658 886.316 582.677 885.601 582.658 885.004 582.408 884.524 581.927 884.042 581.446 883.793 580.848 883.774 580.133L883.774 569.538C883.793 568.824 884.042 568.226 884.524 567.746 885.004 567.266 885.601 567.017 886.316 566.997L921.239 566.997 921.239 560.1 876.151 560.1 876.151 640.6 922.087 640.6 922.087 633.703 886.316 633.703C885.601 633.684 885.004 633.435 884.524 632.955 884.042 632.475 883.793 631.877 883.774 631.162L883.774 592.121C883.793 591.406 884.042 590.809 884.524 590.329 885.004 589.848 885.601 589.599 886.316 589.58L922.39 589.58C923.131 589.599 923.736 589.848 924.206 590.329 924.674 590.809 924.917 591.406 924.932 592.121L924.932 604.101C924.917 604.816 924.674 605.413 924.206 605.893 923.736 606.373 923.131 606.622 922.39 606.642L899.026 606.642C898.311 606.622 897.713 606.373 897.233 605.893 896.751 605.413 896.502 604.816 896.483 604.101 896.502 603.386 896.751 602.789 897.233 602.308 897.713 601.828 898.311 601.578 899.026 601.56L919.848 601.56 919.848 594.662 888.857 594.662 888.857 628.621 924.629 628.621C925.371 628.64 925.976 628.89 926.445 629.37 926.915 629.85 927.157 630.448 927.171 631.162L927.171 643.141C927.157 643.856 926.915 644.453 926.445 644.934 925.976 645.415 925.371 645.664 924.629 645.683L873.61 645.683C872.895 645.664 872.298 645.415 871.818 644.934 871.338 644.453 871.087 643.856 871.069 643.141L871.069 557.559C871.087 556.845 871.338 556.247 871.818 555.767 872.298 555.286 872.895 555.037 873.61 555.018ZM774.28 555.018 775.007 555.018C775.556 555.025 776.06 555.162 776.519 555.433 776.978 555.704 777.36 556.07 777.669 556.529L827.244 640.606 838.921 640.606 838.921 560.095 831.297 560.095 831.297 626.441C831.28 626.993 831.088 627.432 830.723 627.758 830.357 628.083 829.923 628.249 829.422 628.256 829.143 628.256 828.868 628.181 828.598 628.03 828.327 627.879 828.097 627.651 827.909 627.349L787.591 558.886C787.109 557.958 787.104 557.094 787.576 556.294 788.048 555.495 788.799 555.069 789.829 555.018 790.318 555.025 790.749 555.148 791.124 555.388 791.498 555.629 791.793 555.949 792.009 556.348L826.215 614.395 826.215 557.557C826.231 556.843 826.473 556.246 826.941 555.765 827.41 555.286 828.015 555.037 828.756 555.018L841.462 555.018C842.177 555.037 842.774 555.286 843.254 555.765 843.734 556.246 843.984 556.843 844.003 557.557L844.003 643.144C843.985 643.858 843.734 644.455 843.254 644.934 842.774 645.415 842.177 645.664 841.462 645.683L826.638 645.683C825.903 645.679 825.227 645.506 824.611 645.161 823.996 644.818 823.501 644.327 823.128 643.689L776.821 565.119 776.821 640.606 784.445 640.606 784.445 601.925C784.464 601.21 784.713 600.612 785.194 600.131 785.674 599.651 786.271 599.401 786.986 599.381 787.701 599.403 788.298 599.663 788.778 600.162 789.258 600.659 789.509 601.268 789.527 601.985L789.527 643.144C789.509 643.858 789.258 644.455 788.778 644.934 788.298 645.415 787.701 645.664 786.986 645.683L774.28 645.683C773.539 645.664 772.934 645.415 772.465 644.934 771.997 644.455 771.755 643.858 771.739 643.144L771.739 557.557C771.755 556.843 771.997 556.246 772.465 555.765 772.934 555.286 773.539 555.037 774.28 555.018ZM728.198 555.018 740.903 555.018C741.618 555.037 742.216 555.286 742.697 555.767 743.177 556.247 743.426 556.845 743.445 557.559L743.445 569.538C743.426 570.253 743.177 570.85 742.697 571.331 742.216 571.811 741.618 572.061 740.903 572.079L730.74 572.079 730.74 640.606 738.362 640.606 738.362 581.523C738.382 580.808 738.631 580.211 739.111 579.73 739.591 579.25 740.189 578.999 740.903 578.981 741.618 578.999 742.216 579.25 742.697 579.73 743.177 580.211 743.426 580.808 743.445 581.523L743.445 643.144C743.426 643.858 743.177 644.455 742.697 644.934 742.216 645.415 741.618 645.664 740.903 645.683L728.198 645.683C727.484 645.664 726.885 645.415 726.405 644.934 725.925 644.455 725.676 643.858 725.657 643.144L725.657 569.538C725.676 568.824 725.925 568.226 726.405 567.746 726.885 567.266 727.484 567.017 728.198 566.997L738.362 566.997 738.362 560.1 728.198 560.1C727.484 560.081 726.885 559.832 726.405 559.352 725.925 558.872 725.676 558.274 725.657 557.559 725.676 556.845 725.925 556.247 726.405 555.767 726.885 555.286 727.484 555.037 728.198 555.018ZM652.188 555.018 699.821 555.018C700.535 555.033 701.132 555.275 701.611 555.744 702.091 556.212 702.341 556.818 702.359 557.559L702.359 569.538C702.341 570.253 702.091 570.85 701.611 571.331 701.132 571.811 700.535 572.061 699.821 572.079L667.435 572.079 667.435 580.133C667.416 580.848 667.166 581.446 666.686 581.927 666.206 582.408 665.608 582.658 664.893 582.677 664.179 582.658 663.582 582.408 663.101 581.927 662.62 581.446 662.371 580.848 662.352 580.133L662.352 569.538C662.371 568.797 662.62 568.192 663.101 567.723 663.582 567.255 664.179 567.012 664.893 566.997L697.283 566.997 697.283 560.1 654.729 560.1 654.729 589.58 692.013 589.58C692.726 589.595 693.323 589.837 693.804 590.306 694.284 590.775 694.533 591.38 694.552 592.121L694.552 604.101C694.533 604.816 694.284 605.413 693.804 605.893 693.323 606.373 692.726 606.622 692.013 606.642L654.729 606.642 654.729 640.606 662.352 640.606 662.352 616.025C662.371 615.284 662.62 614.678 663.101 614.21 663.582 613.74 664.179 613.498 664.893 613.483 665.608 613.498 666.206 613.74 666.686 614.21 667.166 614.678 667.416 615.284 667.435 616.025L667.435 643.144C667.416 643.858 667.166 644.455 666.686 644.934 666.206 645.415 665.608 645.664 664.893 645.683L652.188 645.683C651.473 645.664 650.876 645.415 650.396 644.934 649.915 644.455 649.665 643.858 649.646 643.144L649.646 604.101C649.665 603.359 649.915 602.755 650.396 602.286 650.876 601.816 651.473 601.574 652.188 601.56L689.474 601.56 689.474 594.662 652.188 594.662C651.473 594.644 650.876 594.393 650.396 593.913 649.915 593.433 649.665 592.836 649.646 592.121L649.646 557.559C649.665 556.818 649.915 556.212 650.396 555.744 650.876 555.275 651.473 555.033 652.188 555.018ZM571.482 555.018 621.654 555.018C622.396 555.037 623.001 555.286 623.47 555.767 623.94 556.247 624.182 556.845 624.196 557.559L624.196 569.538C624.182 570.253 623.94 570.85 623.47 571.331 623.001 571.811 622.396 572.061 621.654 572.079L586.729 572.079 586.729 580.133C586.714 580.848 586.472 581.446 586.003 581.927 585.534 582.408 584.929 582.658 584.188 582.677 583.473 582.658 582.876 582.408 582.396 581.927 581.915 581.446 581.666 580.848 581.647 580.133L581.647 569.538C581.666 568.824 581.915 568.226 582.396 567.746 582.876 567.266 583.473 567.017 584.188 566.997L619.112 566.997 619.112 560.1 574.023 560.1 574.023 640.6 619.959 640.6 619.959 633.703 584.188 633.703C583.473 633.684 582.876 633.435 582.396 632.955 581.915 632.475 581.666 631.877 581.647 631.162L581.647 592.121C581.666 591.406 581.915 590.809 582.396 590.329 582.876 589.848 583.473 589.599 584.188 589.58L620.262 589.58C621.003 589.599 621.609 589.848 622.078 590.329 622.547 590.809 622.789 591.406 622.805 592.121L622.805 604.101C622.789 604.816 622.547 605.413 622.078 605.893 621.609 606.373 621.003 606.622 620.262 606.642L596.898 606.642C596.183 606.622 595.585 606.373 595.105 605.893 594.624 605.413 594.375 604.816 594.356 604.101 594.375 603.386 594.624 602.789 595.105 602.308 595.585 601.828 596.183 601.578 596.898 601.56L617.72 601.56 617.72 594.662 586.729 594.662 586.729 628.621 622.502 628.621C623.243 628.64 623.849 628.89 624.317 629.37 624.787 629.85 625.029 630.448 625.044 631.162L625.044 643.141C625.029 643.856 624.787 644.453 624.317 644.934 623.849 645.415 623.243 645.664 622.502 645.683L571.482 645.683C570.767 645.664 570.17 645.415 569.69 644.934 569.21 644.453 568.96 643.856 568.941 643.141L568.941 557.559C568.96 556.845 569.21 556.247 569.69 555.767 570.17 555.286 570.767 555.037 571.482 555.018ZM480.43 555.018 506.454 555.018C514.635 555.038 521.754 556.793 527.81 560.284 533.867 563.776 538.568 568.884 541.914 575.612 545.259 582.338 546.957 590.564 547.006 600.29 546.954 609.445 545.215 617.413 541.788 624.192 538.362 630.972 533.556 636.235 527.372 639.981 521.186 643.727 513.931 645.628 505.606 645.683L480.43 645.683C479.689 645.664 479.084 645.415 478.615 644.934 478.147 644.453 477.905 643.856 477.889 643.141L477.889 569.538C477.905 568.824 478.147 568.226 478.615 567.746 479.084 567.266 479.689 567.017 480.43 566.997L506.515 566.997C515.274 567.079 522.077 570.017 526.923 575.811 531.769 581.606 534.229 589.765 534.3 600.29 534.265 606.992 533.091 612.839 530.78 617.831 528.47 622.824 525.234 626.706 521.073 629.48 516.912 632.253 512.039 633.661 506.454 633.703L493.136 633.703C492.395 633.684 491.79 633.435 491.321 632.955 490.852 632.475 490.61 631.877 490.595 631.162L490.595 581.463C490.609 580.748 490.852 580.15 491.321 579.669 491.79 579.189 492.395 578.939 493.136 578.92 493.851 578.939 494.448 579.189 494.928 579.669 495.408 580.15 495.659 580.748 495.677 581.463L495.677 628.621 506.454 628.621C511.081 628.586 515.093 627.398 518.491 625.056 521.888 622.715 524.519 619.427 526.384 615.196 528.247 610.964 529.193 605.995 529.218 600.29 529.173 591.142 527.189 584.162 523.262 579.351 519.335 574.54 513.733 572.117 506.454 572.079L482.971 572.079 482.971 640.6 505.606 640.6C513.011 640.556 519.423 638.884 524.843 635.584 530.263 632.285 534.454 627.627 537.418 621.611 540.383 615.594 541.884 608.487 541.923 600.29 541.938 592.57 540.685 585.698 538.162 579.673 535.641 573.648 531.76 568.897 526.52 565.421 521.281 561.945 514.591 560.171 506.454 560.1L480.43 560.1C479.689 560.081 479.084 559.832 478.615 559.352 478.147 558.872 477.905 558.274 477.889 557.559 477.905 556.845 478.147 556.247 478.615 555.767 479.084 555.286 479.689 555.037 480.43 555.018Z" stroke="#FFFFFF" stroke-width="2.06937" stroke-linejoin="round" stroke-miterlimit="10" fill="none" fill-rule="evenodd" transform="matrix(1.00742 0 0 1 -27.3059 -35.9001)"/><path d="M0 0 10.6345 89.7114" stroke="#FFFFFF" stroke-width="2.06937" stroke-miterlimit="8" fill="none" fill-rule="evenodd" transform="matrix(-1.00742 0 0 1 387.843 511.447)"/><path d="M0 0 10.6345 89.7114" stroke="#FFFFFF" stroke-width="2.06937" stroke-miterlimit="8" fill="none" fill-rule="evenodd" transform="matrix(-1.00742 0 0 1 421.198 511.447)"/><path d="M0 0 60.2621 0.000108628" stroke="#FFFFFF" stroke-width="2.06937" stroke-miterlimit="8" fill="none" fill-rule="evenodd" transform="matrix(-1.00742 0 0 1 428.457 572.493)"/><path d="M0 0 60.2621 0.000108628" stroke="#FFFFFF" stroke-width="2.06937" stroke-miterlimit="8" fill="none" fill-rule="evenodd" transform="matrix(-1.00742 0 0 1 430.542 538.349)"/><path d="M0 0 10.6345 89.7114" stroke="#FFFFFF" stroke-width="2.06937" stroke-miterlimit="8" fill="none" fill-rule="evenodd" transform="matrix(-1.00742 0 0 1 392.012 516.621)"/><path d="M0 0 10.6345 89.7114" stroke="#FFFFFF" stroke-width="2.06937" stroke-miterlimit="8" fill="none" fill-rule="evenodd" transform="matrix(-1.00742 0 0 1 425.368 516.621)"/><path d="M0 0 60.2621 0.000108628" stroke="#FFFFFF" stroke-width="2.06937" stroke-miterlimit="8" fill="none" fill-rule="evenodd" transform="matrix(-1.00742 0 0 1 432.627 578.702)"/><path d="M0 0 60.2621 0.000108628" stroke="#FFFFFF" stroke-width="2.06937" stroke-miterlimit="8" fill="none" fill-rule="evenodd" transform="matrix(-1.00742 0 0 1 435.754 543.522)"/></g></g></g></svg>