<svg width="500" height="500" xmlns="http://www.w3.org/2000/svg" xmlns:xlink="http://www.w3.org/1999/xlink" overflow="hidden"><defs><clipPath id="clip0"><rect x="105" y="85" width="472" height="400"/></clipPath></defs><g clip-path="url(#clip0)" transform="translate(-105 -85)"><path d="M380.22 403 288.487 403.31 283.001 471 385.999 470.585 380.22 403Z" fill="#2AF5C7" fill-rule="evenodd"/><path d="M112 103.437C112 97.1207 117.121 92 123.437 92L559.563 92C565.879 92 571 97.1207 571 103.437L571 397.563C571 403.879 565.879 409 559.563 409L123.437 409C117.121 409 112 403.879 112 397.563Z" stroke="#2AF5C7" stroke-width="12" stroke-linejoin="round" stroke-miterlimit="10" fill="none" fill-rule="evenodd"/><path d="M335.316 404.001C331.124 404.001 329 409.383 331.941 412.509 332.91 413.539 334.097 413.999 335.258 413.999 337.684 413.999 339.999 411.991 339.999 408.978 339.999 406.258 337.876 404.001 335.316 404.001Z" fill="#FFFFFF" fill-rule="evenodd"/><path d="M239 476C239 471.582 242.582 468 247 468L421 468C425.418 468 429 471.582 429 476L429 476C429 480.418 425.418 484 421 484L247 484C242.582 484 239 480.418 239 476Z" fill="#2AF5C7" fill-rule="evenodd"/></g></svg>