<svg width="1400" height="745" xmlns="http://www.w3.org/2000/svg" xmlns:xlink="http://www.w3.org/1999/xlink" overflow="hidden"><defs><clipPath id="clip0"><rect x="-174" y="-163" width="1400" height="745"/></clipPath></defs><g clip-path="url(#clip0)" transform="translate(174 163)"><path d="M1022.7-119.211 1022.7 494.206 30.2984 494.206 30.2984-119.211ZM16.9536-161.994C-7.97698-161.994-27.9941-140.251-27.9941-113.596L-27.9941 536.994 1080.99 536.994 1080.99-113.596C1080.99-140.251 1060.98-161.994 1036.05-161.994Z" fill="#2AF5C7" fill-rule="evenodd"/><path d="M515.622-149.994C507.334-149.994 503.006-140.307 509.134-134.773 511.018-132.855 513.359-132.006 515.658-132.006 520.413-132.006 524.994-135.639 524.994-141 524.994-145.847 520.672-149.994 515.622-149.994Z" fill="#FFFFFF" fill-rule="evenodd"/><path d="M-172.994 560-31.5095 581 1083.16 581 1224.99 560Z" fill="#B8B8B8" fill-rule="evenodd"/><path d="M-172.994 535-172.994 562.994 1224.99 562.994 1224.99 535Z" fill="#2AF5C7" fill-rule="evenodd"/><path d="M359.006 535C359.006 542.025 364.974 547.994 371.998 547.994L681.008 547.994C688.032 547.994 694 542.025 694 535Z" fill="#FFFFFF" fill-rule="evenodd"/><path d="M-172.994 560-31.5095 581 1083.16 581 1224.99 560Z" fill="#2AF5C7" fill-rule="evenodd"/></g></svg>