<svg width="589" height="1058" xmlns="http://www.w3.org/2000/svg" xmlns:xlink="http://www.w3.org/1999/xlink" overflow="hidden"><defs><clipPath id="clip0"><rect x="127" y="-595" width="589" height="1058"/></clipPath></defs><g clip-path="url(#clip0)" transform="translate(-127 595)"><path d="M284.005-574.994 284.005-546.922C284.005-526.241 300.578-509 321.545-509L520.455-509C540.933-509 557.995-526.241 557.995-546.922L557.995-574.994Z" fill="#2AF5C7" fill-rule="evenodd"/><path d="M625.924-555.029C653.179-555.029 675.57-532.621 675.57-504.857L675.57 373.857C675.57 401.621 653.179 424.029 625.924 424.029L217.076 424.029C189.333 424.029 166.942 401.621 166.942 373.857L166.942-504.857C166.942-532.621 189.333-555.029 217.076-555.029ZM217.076-594C167.918-594 128.005-554.541 128.005-504.857L128.005 373.857C128.005 423.052 167.918 462.995 217.076 462.995L625.924 462.995C675.082 462.995 714.995 423.052 714.995 373.857L714.995-504.857C714.995-554.058 675.082-594 625.924-594Z" fill="#2AF5C7" fill-rule="evenodd"/></g></svg>